<?xml version="1.0" standalone="no"?><!DOCTYPE svg PUBLIC "-//W3C//DTD SVG 1.1//EN" "http://www.w3.org/Graphics/SVG/1.1/DTD/svg11.dtd"><svg class="icon" height="512" viewBox="0 0 1024 1024" version="1.1" xmlns="http://www.w3.org/2000/svg"><path d="M512.002047 958.708971c-246.715031 0-446.712041-199.998033-446.712042-446.706924 0-246.715031 199.998033-446.712041 446.712042-446.712042 246.708891 0 446.706925 199.998033 446.706924 446.712042 0 246.709915-199.99701 446.706925-446.706924 446.706924z" fill="#3FC646" /><path d="M477.6691 546.255175c-44.225247-44.113707-86.49291-95.261621-66.22326-115.476011 28.976962-28.921703 54.163597-46.733371 2.901073-110.560049-51.313689-63.766302-85.544305-14.794961-113.632014 13.232373-32.385595 32.389688-1.674129 152.943344 117.598349 272.104281C537.640983 724.657354 658.419767 755.36882 690.805362 722.983225c28.087709-28.031427 77.057003-62.147432 13.232372-113.465214-63.821561-51.258431-81.69258-26.021653-110.670565 2.905166-20.270672 20.103874-71.472821-22.054295-115.698069-66.168002z" fill="#FFFFFF" /></svg>